<svg width="37" height="37" viewBox="0 0 37 37" fill="none" xmlns="http://www.w3.org/2000/svg">
<path d="M18.5042 3.99521C21.3753 3.99521 24.1819 4.84273 26.5691 6.4306C28.9563 8.01847 30.8169 10.2754 31.9157 12.9159C33.0144 15.5564 33.3018 18.462 32.7417 21.2652C32.1816 24.0683 30.799 26.6432 28.7689 28.6642C26.7387 30.6852 24.1521 32.0615 21.3362 32.6191C18.5203 33.1766 15.6015 32.8905 12.949 31.7967C10.2965 30.703 8.02931 28.8508 6.43422 26.4744C4.83913 24.098 3.98776 21.3041 3.98776 18.446C3.98776 14.6134 5.51717 10.9378 8.23953 8.22774C10.9619 5.5177 14.6542 3.99521 18.5042 3.99521ZM18.5042 0C14.8444 0 11.2668 1.08034 8.22382 3.10441C5.18082 5.12848 2.8091 8.00536 1.40856 11.3713C0.00801759 14.7372 -0.358427 18.4409 0.355561 22.0141C1.06955 25.5873 2.8319 28.8696 5.41976 31.4457C8.00762 34.0219 11.3048 35.7762 14.8942 36.487C18.4837 37.1977 22.2043 36.833 25.5855 35.4388C28.9667 34.0446 31.8566 31.6836 33.8899 28.6543C35.9231 25.6251 37.0084 22.0637 37.0084 18.4205C37.0084 13.5351 35.0589 8.84974 31.5886 5.39523C28.1184 1.94072 23.4118 0 18.5042 0Z" fill="#1352F1"/>
</svg>
